<svg width="66" height="67" viewBox="0 0 66 67" fill="none" xmlns="http://www.w3.org/2000/svg">
<g clip-path="url(#clip0_6181_9851)">
<path d="M45.7635 53.7237C43.9219 53.9481 42.7323 53.3159 41.9258 51.7728L41.2335 50.5355L31.2327 32.895C30.5808 31.7394 29.6331 31.1411 28.3024 31.1819C27.7512 31.1955 27.1934 31.1819 26.6356 31.1547C25.8492 31.114 25.1906 31.3519 24.7671 32.0385C24.3504 32.7115 24.3572 33.4116 24.7537 34.1186L38.7132 58.7202C38.9148 59.0737 39.1366 59.1824 39.5197 59.1757L46.9531 59.1892L52.8474 59.2504H56.0869L28.0537 9.81617C27.9462 9.95213 27.8857 10.0133 27.8453 10.0881L20.5464 22.8001C19.6323 24.418 20.1095 26.7089 21.5343 27.9325C23.3423 29.4893 25.782 29.3465 27.5362 27.5791C28.793 26.3146 30.359 26.4914 31.2193 28.0005L45.3669 52.942L45.7635 53.7237ZM18.073 27.1576L17.7101 27.7286L14.8066 32.759C14.5244 33.2281 14.5378 33.568 14.8066 34.0371L25.54 52.9556L25.9433 53.7101C25.4527 53.7101 25.0965 53.7509 24.7537 53.7033C23.6044 53.5334 22.7508 52.908 22.1728 51.8815L13.4893 36.5455L13.0659 35.8657L12.75 36.3551L9.75247 41.5555C9.52395 41.943 9.5374 42.2217 9.75919 42.6024L15.6266 52.9284C15.7476 53.1391 15.8417 53.3567 15.9828 53.6286H9.04676L9.81296 52.2758C10.3842 51.3581 10.6262 50.3588 10.4514 49.3051C10.1624 47.4833 8.87202 46.1713 8.12599 44.5398C8.01173 44.6486 7.97141 44.6689 7.95124 44.7097L0.141468 58.3123C-0.147534 58.8154 0.0137698 59.0465 0.618658 59.0601L6.44575 59.1281L28.8132 59.1621L29.4517 59.1689H36.2197L18.073 27.1576ZM66.0003 59.2504L37.4227 8.85767L35.9374 11.4341C34.4588 13.9289 34.5193 16.3897 35.9508 18.8981L51.3083 45.9674L58.5535 58.7066C58.6812 58.9309 58.9635 59.2232 59.1785 59.23L66.0003 59.2504Z" fill="#E8155D"/>
<path d="M33.0008 1.07397L29.5866 7.02893C29.4992 7.18528 29.4723 7.46399 29.553 7.61354L31.5289 11.0873C31.9389 11.7671 32.9471 11.835 33.3907 11.196C34.2711 9.91803 34.9768 8.55165 35.0911 6.94055C35.2591 4.69725 34.1367 2.94339 33.0008 1.07397Z" fill="white"/>
<path d="M45.7635 53.7237L45.3535 52.9352L31.2058 27.9937C30.3523 26.4846 28.7796 26.3079 27.5227 27.5723C25.7753 29.3397 23.3288 29.4825 21.5209 27.9257C20.0961 26.7021 19.6189 24.4044 20.5329 22.7933L27.8319 10.0813C27.8722 10.0065 27.9327 9.95213 28.0403 9.80937L56.0802 59.2504H52.8407L46.9464 59.1892L39.513 59.1757C39.1231 59.1757 38.9013 59.0669 38.7064 58.7202L24.7604 34.1186C24.3572 33.4116 24.3572 32.7115 24.7739 32.0385C25.1973 31.3519 25.8559 31.114 26.6423 31.1547L28.3091 31.1819C29.6398 31.1411 30.5875 31.7394 31.2394 32.895L41.2402 50.5355L41.9325 51.7728C42.7323 53.3159 43.9219 53.9481 45.7635 53.7237ZM18.073 27.1576L36.2264 59.1689H29.4584C29.2433 59.1689 29.0282 59.1621 28.8199 59.1621L6.44575 59.1213L0.618658 59.0533C0.0137698 59.0465 -0.147534 58.8086 0.141468 58.3055L7.95797 44.7029C7.97813 44.669 8.01846 44.6418 8.13271 44.533C8.87202 46.1645 10.1624 47.4765 10.4582 49.2983C10.6262 50.352 10.391 51.3581 9.81968 52.269L9.05349 53.6218H15.9895L15.6333 52.9216L9.76591 42.5956C9.55084 42.2149 9.5374 41.9294 9.75919 41.5487L12.7567 36.3483C12.8374 36.2056 12.9382 36.0696 13.0726 35.8589L13.4961 36.5387L22.1796 51.8747C22.7576 52.8944 23.6111 53.5198 24.7604 53.6965C25.1032 53.7509 25.4661 53.7033 25.95 53.7033L25.5468 52.9488L14.8066 34.0303C14.5378 33.5612 14.5244 33.2213 14.8066 32.7523L17.7101 27.7218L18.073 27.1576ZM66.0003 59.2504C63.6547 59.2504 61.4166 59.264 59.1785 59.23C58.9635 59.2232 58.6812 58.9377 58.5535 58.7066L51.3083 45.9674L35.9508 18.8981C34.5193 16.3897 34.4521 13.9221 35.9374 11.4341C36.4213 10.6251 36.8851 9.80257 37.4227 8.85767L66.0003 59.2504Z" fill="#E8155D"/>
<path d="M33.0008 1.07403C34.1366 2.94345 35.259 4.69051 35.091 6.94061C34.97 8.55851 34.271 9.91809 33.3906 11.1961C32.947 11.8351 31.9389 11.7603 31.5289 11.0873L29.5529 7.6136C29.4723 7.46405 29.4991 7.18534 29.5865 7.02899L33.0008 1.07403ZM38.3036 0.60498C39.5 0.60498 40.4745 1.59067 40.4745 2.8007C40.4727 3.38366 40.2425 3.94214 39.8343 4.35372C39.4261 4.7653 38.8733 4.99642 38.2969 4.99642C37.1006 4.99642 36.126 4.00393 36.126 2.8007C36.1296 2.21829 36.3603 1.66085 36.7681 1.24965C37.176 0.838452 37.7278 0.606762 38.3036 0.60498ZM36.368 2.8075C36.368 3.32674 36.5719 3.82471 36.9349 4.19187C37.2979 4.55902 37.7903 4.76529 38.3036 4.76529C39.3655 4.76529 40.2325 3.88836 40.2393 2.8075C40.2393 2.28826 40.0353 1.79029 39.6723 1.42313C39.3093 1.05597 38.817 0.849705 38.3036 0.849705C37.7903 0.849705 37.2979 1.05597 36.9349 1.42313C36.5719 1.79029 36.368 2.28826 36.368 2.8075Z" fill="white"/>
<path d="M38.6531 2.86875C38.7741 2.91633 38.8413 2.99791 38.8884 3.09988L39.2647 3.88843L39.332 4.03798C39.1908 4.03798 39.0631 4.03119 38.9354 4.03798C38.8279 4.04478 38.7808 4.004 38.7405 3.90882L38.4582 3.24263C38.3776 3.06589 38.223 2.99111 38.0348 3.0319V4.03119H37.5845V1.58395C37.5979 1.58395 37.6114 1.57715 37.6248 1.57715H38.3641C38.465 1.57715 38.5725 1.59074 38.6666 1.61114C39.0362 1.69271 39.1908 1.95783 39.1572 2.31132C39.137 2.59683 38.9825 2.76678 38.7136 2.84156C38.7002 2.85515 38.68 2.85515 38.6531 2.86875ZM38.0348 2.66481L38.4112 2.63082C38.4649 2.62402 38.5187 2.59683 38.559 2.56284C38.68 2.48127 38.7002 2.35891 38.68 2.22295C38.6599 2.10059 38.5859 2.03261 38.4717 1.99182C38.3305 1.95103 38.1827 1.96463 38.0348 1.96463V2.66481ZM3.50914 66.2659L3.13277 65.3142H1.03582L0.659446 66.2659H0.0612793L1.76169 61.9968H2.41362L4.10731 66.2659H3.50914ZM2.08429 62.5406L1.1904 64.8451H2.97818L2.08429 62.5406ZM4.65843 66.2659V61.9968H6.35211C7.19896 61.9968 7.67615 62.5882 7.67615 63.2816C7.67615 63.9818 7.19224 64.5664 6.35211 64.5664H5.18266V66.2659H4.65843ZM7.13175 63.2816C7.13175 62.7989 6.78898 62.4659 6.29163 62.4659H5.18266V64.0905H6.29163C6.78898 64.0905 7.13175 63.7574 7.13175 63.2816ZM8.37513 66.2659V61.9968H10.0688C10.9157 61.9968 11.3928 62.5882 11.3928 63.2816C11.3928 63.9818 10.9089 64.5664 10.0688 64.5664H8.89937V66.2659H8.37513ZM10.8484 63.2816C10.8484 62.7989 10.5057 62.4659 10.0083 62.4659H8.89937V64.0905H10.0083C10.5057 64.0905 10.8484 63.7574 10.8484 63.2816ZM11.8364 65.6609L12.1523 65.253C12.316 65.4459 12.5192 65.6006 12.7478 65.7062C12.9764 65.8119 13.225 65.866 13.4764 65.8648C14.2291 65.8648 14.4711 65.4569 14.4711 65.1238C14.4711 64.0226 11.9709 64.6344 11.9709 63.1116C11.9709 62.4047 12.5892 61.922 13.4293 61.922C14.0678 61.922 14.5652 62.1464 14.9214 62.5202L14.6055 62.9077C14.2896 62.5474 13.846 62.3979 13.3823 62.3979C12.8849 62.3979 12.5153 62.6698 12.5153 63.0777C12.5153 64.0362 15.0155 63.4855 15.0155 65.083C15.0155 65.6948 14.5988 66.3406 13.4562 66.3406C12.7303 66.3406 12.1859 66.0551 11.8364 65.6609ZM17.4417 66.3882V61.8608H17.7912V66.3882H17.4417ZM23.6385 66.2659L22.711 62.8193L21.7835 66.2659H21.2122L20.0091 61.9968H20.5939L21.5281 65.5521L22.4959 61.9968H22.9328L23.9006 65.5521L24.8281 61.9968H25.4195L24.2098 66.2659H23.6385Z" fill="white"/>
<path d="M26.0052 66.2659V61.9968H28.7676V62.4727H26.5295V63.8459H28.7272V64.3217H26.5295V65.7968H28.7676V66.2727H26.0052V66.2659Z" fill="white"/>
<path d="M29.6061 66.2659V61.9968H31.488C32.2206 61.9968 32.6709 62.4455 32.6709 63.0845C32.6709 63.6215 32.3147 63.9818 31.9316 64.0634C32.3819 64.1314 32.7516 64.6004 32.7516 65.1103C32.7516 65.7968 32.3013 66.2591 31.5283 66.2591H29.6061V66.2659ZM32.1198 63.1593C32.1198 62.7786 31.8644 62.4659 31.3939 62.4659H30.1304V63.8391H31.3939C31.8711 63.8459 32.1198 63.5467 32.1198 63.1593ZM32.2072 65.0559C32.2072 64.6684 31.9383 64.3217 31.4275 64.3217H30.1304V65.7968H31.4275C31.9114 65.7901 32.2072 65.5045 32.2072 65.0559Z" fill="white"/>
<path d="M33.3297 65.6607L33.6455 65.2528C33.9211 65.5723 34.3714 65.8647 34.9696 65.8647C35.7223 65.8647 35.9643 65.4568 35.9643 65.1237C35.9643 64.0224 33.4641 64.6342 33.4641 63.1115C33.4641 62.4045 34.0824 61.9219 34.9225 61.9219C35.561 61.9219 36.0584 62.1462 36.4146 62.5201L36.0987 62.9076C35.7828 62.5473 35.3392 62.3977 34.8755 62.3977C34.3781 62.3977 34.0085 62.6696 34.0085 63.0775C34.0085 64.036 36.5087 63.4854 36.5087 65.0829C36.5087 65.6947 36.092 66.3405 34.9494 66.3405C34.2235 66.3405 33.6791 66.055 33.3297 65.6607Z" fill="white"/>
<path d="M37.2961 66.2659V61.9968H37.8204V66.2659H37.2961ZM39.8501 66.2659V62.4727H38.5126V61.9968H41.7118V62.4727H40.3676V66.2659H39.8501Z" fill="white"/>
<path d="M42.4165 66.2659V61.9968H45.1788V62.4727H42.9407V63.8459H45.1385V64.3217H42.9407V65.7968H45.1788V66.2727H42.4165V66.2659Z" fill="white"/>
<path d="M45.7639 65.6607L46.0798 65.2528C46.3554 65.5723 46.8057 65.8647 47.4038 65.8647C48.1566 65.8647 48.3985 65.4568 48.3985 65.1237C48.3985 64.0224 45.8983 64.6342 45.8983 63.1115C45.8983 62.4045 46.5167 61.9219 47.3568 61.9219C47.9953 61.9219 48.4926 62.1462 48.8488 62.5201L48.533 62.9076C48.2171 62.5473 47.7735 62.3977 47.3097 62.3977C46.8124 62.3977 46.4427 62.6696 46.4427 63.0775C46.4427 64.036 48.9429 63.4854 48.9429 65.0829C48.9429 65.6947 48.5262 66.3405 47.3837 66.3405C46.6578 66.3405 46.1134 66.055 45.7639 65.6607Z" fill="white"/>
<path d="M51.3702 66.3882V61.8608H51.7197V66.3882H51.3702ZM54.0922 65.6609L54.4081 65.253C54.6836 65.5725 55.1339 65.8648 55.7321 65.8648C56.4848 65.8648 56.7268 65.4569 56.7268 65.1238C56.7268 64.0226 54.2266 64.6344 54.2266 63.1116C54.2266 62.4047 54.8449 61.922 55.685 61.922C56.3235 61.922 56.8209 62.1464 57.1771 62.5202L56.8612 62.9077C56.5453 62.5474 56.1017 62.3979 55.638 62.3979C55.1406 62.3979 54.771 62.6698 54.771 63.0777C54.771 64.0362 57.2712 63.4855 57.2712 65.083C57.2712 65.6948 56.8545 66.3406 55.7119 66.3406C54.9793 66.3406 54.4349 66.0551 54.0922 65.6609Z" fill="white"/>
<path d="M58.0499 66.2659V61.9968H60.8122V62.4727H58.5741V63.8459H60.7719V64.3217H58.5741V65.7968H60.8122V66.2727H58.0499V66.2659Z" fill="white"/>
<path d="M61.4843 64.1312C61.4843 62.8668 62.3312 61.9219 63.5813 61.9219C64.8314 61.9219 65.6849 62.8668 65.6849 64.1312C65.6849 65.3888 64.8314 66.3405 63.5813 66.3405C62.3312 66.3405 61.4843 65.3956 61.4843 64.1312ZM65.1338 64.1312C65.1338 63.1319 64.5222 62.3977 63.5745 62.3977C62.6269 62.3977 62.022 63.1319 62.022 64.1312C62.022 65.1237 62.6202 65.8647 63.5745 65.8647C64.5222 65.8647 65.1338 65.1237 65.1338 64.1312Z" fill="white"/>
</g>
<defs>
<clipPath id="clip0_6181_9851">
<rect width="66" height="67" fill="white"/>
</clipPath>
</defs>
</svg>
